<svg height="297mm" viewBox="0 0 744.09448819 1052.3622047" width="210mm" xmlns="http://www.w3.org/2000/svg" xmlns:xlink="http://www.w3.org/1999/xlink"><linearGradient id="a" gradientUnits="userSpaceOnUse" x1="226.358541" x2="571.82001" y1="722.36222" y2="322.36222"><stop offset="0" stop-color="#4e505d"/><stop offset="1" stop-color="#7a859c"/></linearGradient><path d="m189.99854 322.36221h400v400h-400z" fill="none"/><path d="m389.99805 322.36133c-100.41765.00008-181.82173 28.48871-181.82032 63.63086.002 35.14139 81.40484 63.62882 181.82032 63.6289 100.41625.0003 181.82059-28.48724 181.82226-63.6289-.072-1.29529-.25692-2.58952-.55469-3.88086-.28656-1.63918-.75436-3.27387-1.40234-4.90039-12.50747-31.41705-89.22492-54.8119-179.86523-54.84961zm-181.82032 99.80469v54.91992c.30612 35.06319 81.60832 63.43185 181.80079 63.43554 100.41625.00029 181.8206-28.48724 181.82226-63.6289v36.17383c-.92131.84132-1.85509 1.66913-2.81445 2.46289-11.68215 9.66579-26.69545 17.11687-44.49414 23.3457-35.59739 12.45766-82.60307 19.64844-134.51367 19.64844s-98.91433-7.19078-134.51172-19.64844c-17.79869-6.22883-32.81198-13.67991-44.49414-23.3457-.95261-.78819-1.87992-1.6101-2.79493-2.44532v55.08008c.30613 35.06319 81.60831 63.43186 181.80079 63.43555 100.41622.00029 181.82058-28.48726 181.82226-63.62891v36.17383c-.92131.84132-1.85509 1.66913-2.81445 2.46289-11.68215 9.66579-26.69545 17.11687-44.49414 23.3457-14.83821 5.19278-31.68012 9.45455-50.01172 12.67774 8.30472.7895 16.35425 3.15934 23.24805 8.45703a18.0018 18.0018 0 0 1 .66406-.9375l-.42969 1.12109c.0745.05821.14846.11689.22266.17579a18.0018 18.0018 0 0 1 4.93359-5.58204 18.0018 18.0018 0 0 1 8.56641-2.70898 18.0018 18.0018 0 0 1 .52539-.02539 18.0018 18.0018 0 0 1 1.27148-.06445h.3457l-.08593.08593a18.0018 18.0018 0 0 1 5.32812 1.14844l-5.22851-1.99609h7.90039a18.0018 18.0018 0 0 1 11.63476 4.26953 18.0018 18.0018 0 0 1 11.63282-4.26953h13.99414c4.11237 0 8.50389.59291 12.8164 1.96679v-222.10546c-.9213.84132-1.8551 1.66913-2.81445 2.46289-11.68215 9.66579-26.69545 17.11687-44.49414 23.3457-35.59739 12.4577-82.60307 19.64844-134.51367 19.64844s-98.91434-7.19078-134.51172-19.64844c-17.79869-6.22883-32.81199-13.67991-44.49414-23.3457-.95934-.79376-1.89316-1.62157-2.81446-2.46289zm0 181.99609v54.39258c-.007.0456-.01313.0911-.01953.13672.00066 11.56632 8.82173 22.41163 24.23438 31.75781-.14992-1.5668-.23047-3.13634-.23047-4.69922 0-10.6245 3.18811-21.68821 10.63086-29.98438 7.4913-8.39245 18.89017-12.84179 29.67383-12.84179 10.49151 0 21.43429 4.37755 28.84375 12.14062a18.0018 18.0018 0 0 1 .02929-.00195h8.14063a18.0018 18.0018 0 0 1 1.66015.0918c2.75791-.64578 5.45637-.90039 7.97852-.90039 6.24181 0 12.51354 2.27387 17.79492 5.79492 5.96476-3.76283 13.01684-5.79492 19.71875-5.79492a18.0018 18.0018 0 0 1 3.42969.3457c3.56347.3624 7.14767 1.1682 10.57227 2.64648a18.0018 18.0018 0 0 1 8.58789-2.18359h8.14062a18.0018 18.0018 0 0 1 1.95703.12891c2.58381-.61881 5.21059-.9375 7.77735-.9375a18.0018 18.0018 0 0 1 3.40234.3457c.27671.0301.54805.04648.82617.08398a18.0018 18.0018 0 0 1 2.79492-5.28125c-4.67486.11957-9.38012.19922-14.14257.19922-51.9106 0-98.91433-7.19077-134.51172-19.64844-17.79869-6.22883-32.81198-13.67991-44.49414-23.3457-.95261-.78818-1.87992-1.61008-2.79493-2.44531zm234.46094 42.83594c-1.02679.10387-2.05449.20688-3.08789.30468a18.0018 18.0018 0 0 1 1.32227 1.40039 18.0018 18.0018 0 0 1 .49804-.46289 18.0018 18.0018 0 0 1 1.26758-1.24218zm51.26563 11.91992c.0155.015.02356.03383.03906.04883.0153.015.03353.02211.04883.03711zm-243.83789 1.26953-1.31836 1.4707c.17443-.21767.44424-.38623.6289-.59961.26021-.30362.39461-.57625.68946-.87109zm-1.91016 2.37109-.14063.22071c.00421-.0061.01163-.01353.01563-.01953.04711-.06479.08367-.13388.125-.20118zm172.64063 2.29883c.00749.0089.01253.01835.01953.02735.0129.0155.03016.02541.04297.04101zm-148.33008 20.19727c-.01211 0-.81197.36829-1.47071.67187.65908.30375 1.45861.67188 1.47071.67188l.89062-.89063c-.26943-.12006-.88262-.45312-.89062-.45312zm48.24218 8.09961a18.0018 18.0018 0 0 1 .08594.05273c-.0001-.003.0001-.00481 0-.00781l-.04297-.02539z" fill="url(#a)"/><path d="m189.99855 322.3622h400.00145v.00001 399.99997h-400.00146c-.00001 0-.00001 0-.00001 0l.00001-399.99997c0-.00001 0-.00001.00001-.00001z" fill="none"/><path d="m190 322.36221h400v400h-400z" fill="none"/><path d="m272.30326 666.87773c-4.47491 0-7.99776 1.66621-10.66364 4.99864-2.61835 3.33236-3.90371 7.85493-3.90371 13.6152 0 5.71266 1.28536 10.23526 3.90371 13.56759 2.66588 3.33244 6.18873 4.99865 10.66364 4.99865 4.47497 0 7.99775-1.66621 10.56848-4.99865 2.61833-3.33233 3.95129-7.85493 3.95129-13.56759 0-5.76027-1.33296-10.28284-3.95129-13.6152-2.57073-3.33243-6.09351-4.99864-10.56848-4.99864m0-4.95098c6.37921 0 11.42539 2.14225 15.28147 6.42677 3.80844 4.23693 5.71266 9.9496 5.71266 17.13805 0 7.14085-1.90422 12.85358-5.71266 17.13806-3.85608 4.28453-8.90226 6.37916-15.28147 6.37916-6.37917 0-11.52055-2.09463-15.32903-6.37916-3.80846-4.23687-5.71268-9.94961-5.71268-17.13806s1.90422-12.90112 5.71268-17.13805c3.80848-4.28452 8.94986-6.42677 15.32903-6.42677z" fill="#4e505d" stroke="#4e505d"/><path d="m272.30326 666.87773c-4.47491 0-7.99776 1.66621-10.66364 4.99864-2.61835 3.33236-3.90371 7.85493-3.90371 13.6152 0 5.71266 1.28536 10.23526 3.90371 13.56759 2.66588 3.33244 6.18873 4.99865 10.66364 4.99865 4.47497 0 7.99775-1.66621 10.56848-4.99865 2.61833-3.33233 3.95129-7.85493 3.95129-13.56759 0-5.76027-1.33296-10.28284-3.95129-13.6152-2.57073-3.33243-6.09351-4.99864-10.56848-4.99864m0-4.95098c6.37921 0 11.42539 2.14225 15.28147 6.42677 3.80844 4.23693 5.71266 9.9496 5.71266 17.13805 0 7.14085-1.90422 12.85358-5.71266 17.13806-3.85608 4.28453-8.90226 6.37916-15.28147 6.37916-6.37917 0-11.52055-2.09463-15.32903-6.37916-3.80846-4.23687-5.71268-9.94961-5.71268-17.13806s1.90422-12.90112 5.71268-17.13805c3.80848-4.28452 8.94986-6.42677 15.32903-6.42677" fill="#4e505d" stroke="#4e505d" stroke-width="2.523103"/><path d="m308.05515 703.05808v18.04257h-5.61746v-47.03447h5.61746v5.18908c1.19016-2.04708 2.66595-3.52287 4.47498-4.5226 1.76123-.99973 3.95112-1.47577 6.42661-1.47577 4.14173 0 7.47417 1.6662 10.04489 4.95102 2.61834 3.28476 3.9037 7.5693 3.9037 12.94873 0 5.33187-1.28536 9.66396-3.9037 12.94878-2.57072 3.28476-5.90316 4.90337-10.04489 4.90337-2.47549 0-4.66538-.47607-6.42661-1.42818-1.80903-.99967-3.28482-2.52307-4.47498-4.52253m19.04224-11.90144c0-4.14168-.85692-7.33127-2.52312-9.66397-1.71383-2.38023-4.04652-3.57039-6.99809-3.57039s-5.28408 1.19016-6.99789 3.57039c-1.66623 2.3327-2.52314 5.52229-2.52314 9.66397 0 4.09412.85691 7.33132 2.52314 9.71158 1.71381 2.33268 4.04632 3.47522 6.99789 3.47522s5.28426-1.14254 6.99809-3.47522c1.6662-2.38026 2.52312-5.61746 2.52312-9.71158z" fill="#4e505d" stroke="#4e505d"/><path d="m308.05515 703.05808v18.04257h-5.61746v-47.03447h5.61746v5.18908c1.19016-2.04708 2.66595-3.52287 4.47498-4.5226 1.76123-.99973 3.95112-1.47577 6.42661-1.47577 4.14173 0 7.47417 1.6662 10.04489 4.95102 2.61834 3.28476 3.9037 7.5693 3.9037 12.94873 0 5.33187-1.28536 9.66396-3.9037 12.94878-2.57072 3.28476-5.90316 4.90337-10.04489 4.90337-2.47549 0-4.66538-.47607-6.42661-1.42818-1.80903-.99967-3.28482-2.52307-4.47498-4.52253m19.04224-11.90144c0-4.14168-.85692-7.33127-2.52312-9.66397-1.71383-2.38023-4.04652-3.57039-6.99809-3.57039s-5.28408 1.19016-6.99789 3.57039c-1.66623 2.3327-2.52314 5.52229-2.52314 9.66397 0 4.09412.85691 7.33132 2.52314 9.71158 1.71381 2.33268 4.04632 3.47522 6.99789 3.47522s5.28426-1.14254 6.99809-3.47522c1.6662-2.38026 2.52312-5.61746 2.52312-9.71158" fill="#4e505d" stroke="#4e505d" stroke-width="2.523103"/><path d="m371.32343 689.7285v2.71351h-25.70727c.23803 3.85609 1.38056 6.80759 3.47523 8.85466 2.04706 1.99946 4.95104 2.99918 8.66431 2.99918 2.14228 0 4.23694-.28563 6.23639-.80932 2.04708-.52365 4.04652-1.33295 6.04598-2.38029v5.33189c-1.99946.80922-4.09414 1.47573-6.18879 1.90418-2.09466.47604-4.23694.66648-6.42682.66648-5.4271 0-9.71164-1.57101-12.90126-4.71294-3.18959-3.18961-4.76059-7.47409-4.76059-12.85357 0-5.56986 1.52339-9.99716 4.52257-13.23437 2.99919-3.28482 7.0457-4.95102 12.18716-4.95102 4.57018 0 8.18823 1.47577 10.85419 4.42736 2.66592 2.95157 3.9989 6.95042 3.9989 12.04425m-5.56991-1.6662c-.0477-3.0468-.90452-5.4747-2.61834-7.33128-1.66621-1.80901-3.85608-2.71354-6.61725-2.71354-3.09439 0-5.6175.85691-7.52175 2.61834-1.85663 1.76136-2.90398 4.28448-3.18961 7.4741l19.94695-.0477z" fill="#4e505d" stroke="#4e505d"/><path d="m371.32343 689.7285v2.71351h-25.70727c.23803 3.85609 1.38056 6.80759 3.47523 8.85466 2.04706 1.99946 4.95104 2.99918 8.66431 2.99918 2.14228 0 4.23694-.28563 6.23639-.80932 2.04708-.52365 4.04652-1.33295 6.04598-2.38029v5.33189c-1.99946.80922-4.09414 1.47573-6.18879 1.90418-2.09466.47604-4.23694.66648-6.42682.66648-5.4271 0-9.71164-1.57101-12.90126-4.71294-3.18959-3.18961-4.76059-7.47409-4.76059-12.85357 0-5.56986 1.52339-9.99716 4.52257-13.23437 2.99919-3.28482 7.0457-4.95102 12.18716-4.95102 4.57018 0 8.18823 1.47577 10.85419 4.42736 2.66592 2.95157 3.9989 6.95042 3.9989 12.04425m-5.56991-1.6662c-.0477-3.0468-.90452-5.4747-2.61834-7.33128-1.66621-1.80901-3.85608-2.71354-6.61725-2.71354-3.09439 0-5.6175.85691-7.52175 2.61834-1.85663 1.76136-2.90398 4.28448-3.18961 7.4741l19.94695-.0477" fill="#4e505d" stroke="#4e505d" stroke-width="2.523103"/><path d="m408.83637 687.58624v20.56563h-5.56991v-20.3752c0-3.23721-.66647-5.66512-1.90424-7.23605-1.23775-1.61861-3.142-2.42791-5.66511-2.42791-2.99919 0-5.37948.99973-7.14092 2.90396-1.76143 1.90418-2.61834 4.57011-2.61834 7.85493v19.28027h-5.61749v-34.08569h5.61749v5.28428c1.33298-2.04707 2.90398-3.57045 4.713-4.57018 1.80904-.99973 3.90371-1.52339 6.284-1.52339 3.95132 0 6.90289 1.23775 8.90235 3.66566 1.99945 2.38029 2.99917 5.95068 2.99917 10.66369z" fill="#4e505d" stroke="#4e505d"/><path d="m408.83637 687.58624v20.56563h-5.56991v-20.3752c0-3.23721-.66647-5.66512-1.90424-7.23605-1.23775-1.61861-3.142-2.42791-5.66511-2.42791-2.99919 0-5.37948.99973-7.14092 2.90396-1.76143 1.90418-2.61834 4.57011-2.61834 7.85493v19.28027h-5.61749v-34.08569h5.61749v5.28428c1.33298-2.04707 2.90398-3.57045 4.713-4.57018 1.80904-.99973 3.90371-1.52339 6.284-1.52339 3.95132 0 6.90289 1.23775 8.90235 3.66566 1.99945 2.38029 2.99917 5.95068 2.99917 10.66369" fill="#4e505d" stroke="#4e505d" stroke-width="2.523103"/><g fill="#99b000" stroke="#99b000"><path d="m419.50014 661.30788h6.18879v40.60765h22.32725v5.23668h-28.51604z"/><path d="m419.50014 661.30788h6.18879v40.60765h22.32725v5.23668h-28.51604z" stroke-width="2.523103"/><path d="m460.72701 666.40166v35.65669h7.4735c6.33161 0 10.997-1.42818 13.90098-4.28448 2.95157-2.90396 4.42736-7.42654 4.42736-13.61528 0-6.14111-1.47579-10.61606-4.42736-13.47238-2.90398-2.85637-7.56937-4.28455-13.90098-4.28455zm-6.18881-5.09378h12.7102c8.90233 0 15.42435 1.85663 19.56609 5.52223 4.18934 3.71328 6.23638 9.47356 6.23638 17.32848 0 7.95017-2.04704 13.71051-6.23638 17.42371-4.18934 3.71328-10.71136 5.56991-19.56609 5.56991h-12.7102z"/><path d="m460.72701 666.40166v35.65669h7.4735c6.33161 0 10.997-1.42818 13.90098-4.28448 2.95157-2.90396 4.42736-7.42654 4.42736-13.61528 0-6.14111-1.47579-10.61606-4.42736-13.47238-2.90398-2.85637-7.56937-4.28455-13.90098-4.28455zm-6.18881-5.09378h12.7102c8.90233 0 15.42435 1.85663 19.56609 5.52223 4.18934 3.71328 6.23638 9.47356 6.23638 17.32848 0 7.95017-2.04704 13.71051-6.23638 17.42371-4.18934 3.71328-10.71136 5.56991-19.56609 5.56991h-12.7102z" stroke-width="2.523103"/><path d="m517.13956 667.40139-8.37869 22.85073h16.85256zm-3.47525-6.09351h7.04571l17.47141 45.84433h-6.47441l-4.14173-11.75863h-20.70864l-4.18934 11.75863h-6.52202z"/><path d="m517.13956 667.40139-8.37869 22.85073h16.85256zm-3.47525-6.09351h7.04571l17.47141 45.84433h-6.47441l-4.14173-11.75863h-20.70864l-4.18934 11.75863h-6.52202z" stroke-width="2.523103"/><path d="m551.03444 666.40166v17.23328h7.80738c2.90399 0 5.14146-.76171 6.71246-2.23741 1.571-1.52341 2.3327-3.61807 2.3327-6.42682 0-2.7135-.7617-4.85578-2.3327-6.33154-1.571-1.52341-3.80847-2.23751-6.71246-2.23751zm-6.18815-5.09378h13.99553c5.14146 0 9.04516 1.14253 11.6635 3.47521 2.61832 2.33267 3.9513 5.71271 3.9513 10.18762 0 4.57018-1.33298 7.95014-3.9513 10.28284-2.61834 2.33269-6.52204 3.47523-11.6635 3.47523h-7.80738v18.42343h-6.18815z"/><path d="m551.03444 666.40166v17.23328h7.80738c2.90399 0 5.14146-.76171 6.71246-2.23741 1.571-1.52341 2.3327-3.61807 2.3327-6.42682 0-2.7135-.7617-4.85578-2.3327-6.33154-1.571-1.52341-3.80847-2.23751-6.71246-2.23751zm-6.18815-5.09378h13.99553c5.14146 0 9.04516 1.14253 11.6635 3.47521 2.61832 2.33267 3.9513 5.71271 3.9513 10.18762 0 4.57018-1.33298 7.95014-3.9513 10.28284-2.61834 2.33269-6.52204 3.47523-11.6635 3.47523h-7.80738v18.42343h-6.18815z" stroke-width="2.523103"/><path d="m575.98001 662.73604h6.14118v.85692h-2.57072v6.42677h-.99973v-6.42677h-2.57073z"/><path d="m583.07333 662.73604h1.47578l1.85663 4.95098 1.85664-4.95098h1.42818v7.28369h-.95212v-6.37919l-1.85664 4.99863h-.99973l-1.85663-4.99863v6.37919h-.95211z"/><path d="m583.07333 662.73604h1.47578l1.85663 4.95098 1.85664-4.95098h1.42818v7.28369h-.95212v-6.37919l-1.85664 4.99863h-.99973l-1.85663-4.99863v6.37919h-.95211z" stroke-width=".618874"/></g></svg>